<svg xmlns="http://www.w3.org/2000/svg" viewBox="0 0 576 512"><!--!Font Awesome Free 6.7.2 by @fontawesome - https://fontawesome.com License - https://fontawesome.com/license/free Copyright 2025 Fonticons, Inc.--><path d="M571.3 193.9l-22.6-22.6c-6.3-6.3-16.4-6.3-22.6 0l-11.3 11.3-28.9-28.9c5.6-21.3 .4-44.9-16.4-61.6l-45.3-45.3c-62.5-62.5-163.8-62.5-226.3 0l90.5 45.3v18.8c0 17 6.7 33.3 18.8 45.3l49.1 49.1c16.7 16.7 40.3 22 61.6 16.4l28.9 28.9-11.3 11.3c-6.3 6.3-6.3 16.4 0 22.6l22.6 22.6c6.3 6.3 16.4 6.3 22.6 0l90.5-90.5c6.2-6.2 6.2-16.4 0-22.6zm-286.7-15.2c-3.7-3.7-6.8-7.8-9.9-12L19.6 405c-25.6 23.9-26.3 64.2-1.5 88.9s65.1 24.1 88.9-1.5l238.1-255.1c-4-2.9-7.9-5.9-11.4-9.4l-49.1-49.1z"/></svg>